<svg width="270" height="64" viewBox="0 0 270 64" fill="none" xmlns="http://www.w3.org/2000/svg">
<path d="M116.186 17.9981C114.26 17.9981 112.236 17.6331 110.65 16.754V1.24411C112.211 0.389878 114.235 2.85548e-05 116.186 2.85548e-05C118.137 2.85548e-05 120.113 0.365035 121.673 1.24411V7.19505H117.745V3.14558C117.283 2.95066 116.721 2.87804 116.161 2.87804C115.601 2.87804 115.087 2.95066 114.6 3.14558V14.8525C115.062 15.0475 115.599 15.1201 116.161 15.1201C116.723 15.1201 117.258 15.0475 117.745 14.8525V10.805H121.673V16.7559C120.136 17.6102 118.112 17.9752 116.186 18V17.9981Z" fill="#F7DD43"/>
<path d="M129.038 17.9981C126.964 17.9981 124.965 17.5585 123.379 16.6565V1.3167C124.94 0.439536 126.941 0 129.038 0C131.134 0 133.085 0.414693 134.647 1.3167V16.6565C133.11 17.5585 131.086 17.9732 129.038 17.9981ZM130.721 3.19524C130.259 3.00031 129.697 2.90285 129.015 2.90285C128.333 2.90285 127.796 3.00031 127.331 3.19524V14.7799C127.794 14.9997 128.355 15.0971 129.015 15.0971C129.674 15.0971 130.234 14.9997 130.721 14.7799V3.19524Z" fill="#F7DD43"/>
<path d="M141.499 11.4127H140.45V17.7783H136.475V0.219779H141.499C143.89 0.219779 145.694 0.707092 147.108 1.70656V9.92589C145.719 10.9024 143.888 11.4127 141.499 11.4127ZM143.158 3.24303C142.793 2.97548 142.304 2.85318 141.475 2.85318H140.401V8.77927H141.475C142.279 8.77927 142.766 8.65697 143.158 8.41427V3.24303Z" fill="#F7DD43"/>
<path d="M155.423 17.7783V11.4127H152.497V17.7783H148.547V1.29185C149.986 0.437625 152.01 0 153.961 0C155.912 0 157.911 0.439537 159.35 1.29185V17.7783H155.423ZM155.423 3.04809C155.009 2.85316 154.496 2.7557 153.959 2.7557C153.422 2.7557 152.91 2.85316 152.496 3.04809V8.63211H155.421V3.04809H155.423Z" fill="#F7DD43"/>
<path d="M58.2129 47.9248H62.5928C62.5049 49.3604 62.1094 50.6348 61.4062 51.748C60.7129 52.8613 59.7412 53.7305 58.4912 54.3555C57.251 54.9805 55.7568 55.293 54.0088 55.293C52.6416 55.293 51.416 55.0586 50.332 54.5898C49.248 54.1113 48.3203 53.4277 47.5488 52.5391C46.7871 51.6504 46.2061 50.5762 45.8057 49.3164C45.4053 48.0566 45.2051 46.6455 45.2051 45.083V43.6035C45.2051 42.041 45.4102 40.6299 45.8203 39.3701C46.2402 38.1006 46.8359 37.0215 47.6074 36.1328C48.3887 35.2441 49.3213 34.5605 50.4053 34.082C51.4893 33.6035 52.7002 33.3643 54.0381 33.3643C55.8154 33.3643 57.3145 33.6865 58.5352 34.3311C59.7656 34.9756 60.7178 35.8643 61.3916 36.9971C62.0752 38.1299 62.4854 39.4189 62.6221 40.8643H58.2275C58.1787 40.0049 58.0078 39.2773 57.7148 38.6816C57.4219 38.0762 56.9775 37.6221 56.3818 37.3193C55.7959 37.0068 55.0146 36.8506 54.0381 36.8506C53.3057 36.8506 52.666 36.9873 52.1191 37.2607C51.5723 37.5342 51.1133 37.9492 50.7422 38.5059C50.3711 39.0625 50.0928 39.7656 49.9072 40.6152C49.7314 41.4551 49.6436 42.4414 49.6436 43.5742V45.083C49.6436 46.1865 49.7266 47.1582 49.8926 47.998C50.0586 48.8281 50.3125 49.5312 50.6543 50.1074C51.0059 50.6738 51.4551 51.1035 52.002 51.3965C52.5586 51.6797 53.2275 51.8213 54.0088 51.8213C54.9268 51.8213 55.6836 51.6748 56.2793 51.3818C56.875 51.0889 57.3291 50.6543 57.6416 50.0781C57.9639 49.502 58.1543 48.7842 58.2129 47.9248ZM74.1504 37.3193L68.3496 55H63.6768L71.6016 33.6719H74.5752L74.1504 37.3193ZM78.9697 55L73.1543 37.3193L72.6855 33.6719H75.6885L83.6572 55H78.9697ZM78.7061 47.0605V50.5029H67.4414V47.0605H78.7061ZM99.3457 51.5723V55H88.6084V51.5723H99.3457ZM90.0293 33.6719V55H85.6348V33.6719H90.0293ZM116.177 51.5723V55H104.824V51.5723H116.177ZM106.26 33.6719V55H101.865V33.6719H106.26ZM114.697 42.3584V45.6982H104.824V42.3584H114.697ZM116.162 33.6719V37.1143H104.824V33.6719H116.162ZM136.099 33.6719V55H131.704L123.135 40.7031V55H118.74V33.6719H123.135L131.719 47.9834V33.6719H136.099ZM146.47 55H141.826L141.855 51.5723H146.47C147.622 51.5723 148.594 51.3135 149.385 50.7959C150.176 50.2686 150.771 49.502 151.172 48.4961C151.582 47.4902 151.787 46.2744 151.787 44.8486V43.8086C151.787 42.7148 151.67 41.7529 151.436 40.9229C151.211 40.0928 150.874 39.3945 150.425 38.8281C149.976 38.2617 149.424 37.8369 148.77 37.5537C148.115 37.2607 147.363 37.1143 146.514 37.1143H141.738V33.6719H146.514C147.939 33.6719 149.243 33.916 150.425 34.4043C151.616 34.8828 152.646 35.5713 153.516 36.4697C154.385 37.3682 155.054 38.4424 155.522 39.6924C156.001 40.9326 156.24 42.3145 156.24 43.8379V44.8486C156.24 46.3623 156.001 47.7441 155.522 48.9941C155.054 50.2441 154.385 51.3184 153.516 52.2168C152.656 53.1055 151.626 53.7939 150.425 54.2822C149.233 54.7607 147.915 55 146.47 55ZM144.316 33.6719V55H139.922V33.6719H144.316ZM167.783 37.3193L161.982 55H157.31L165.234 33.6719H168.208L167.783 37.3193ZM172.603 55L166.787 37.3193L166.318 33.6719H169.321L177.29 55H172.603ZM172.339 47.0605V50.5029H161.074V47.0605H172.339ZM165.308 32.4707L168.179 27.959H172.764L168.735 32.4707H165.308ZM179.268 33.6719H187.222C188.853 33.6719 190.254 33.916 191.426 34.4043C192.607 34.8926 193.516 35.6152 194.15 36.5723C194.785 37.5293 195.103 38.7061 195.103 40.1025C195.103 41.2451 194.907 42.2266 194.517 43.0469C194.136 43.8574 193.594 44.5361 192.891 45.083C192.197 45.6201 191.382 46.0498 190.444 46.3721L189.053 47.1045H182.139L182.109 43.6768H187.251C188.022 43.6768 188.662 43.54 189.17 43.2666C189.678 42.9932 190.059 42.6123 190.312 42.124C190.576 41.6357 190.708 41.0693 190.708 40.4248C190.708 39.7412 190.581 39.1504 190.327 38.6523C190.073 38.1543 189.688 37.7734 189.17 37.5098C188.652 37.2461 188.003 37.1143 187.222 37.1143H183.662V55H179.268V33.6719ZM191.191 55L186.328 45.4932L190.972 45.4639L195.894 54.7949V55H191.191ZM203.159 33.6719V55H198.779V33.6719H203.159ZM224.795 43.8379V44.8486C224.795 46.4697 224.575 47.9248 224.136 49.2139C223.696 50.5029 223.076 51.6016 222.275 52.5098C221.475 53.4082 220.518 54.0967 219.404 54.5752C218.301 55.0537 217.075 55.293 215.728 55.293C214.39 55.293 213.164 55.0537 212.051 54.5752C210.947 54.0967 209.99 53.4082 209.18 52.5098C208.369 51.6016 207.739 50.5029 207.29 49.2139C206.851 47.9248 206.631 46.4697 206.631 44.8486V43.8379C206.631 42.207 206.851 40.752 207.29 39.4727C207.729 38.1836 208.35 37.085 209.15 36.1768C209.961 35.2686 210.918 34.5752 212.021 34.0967C213.135 33.6182 214.36 33.3789 215.698 33.3789C217.046 33.3789 218.271 33.6182 219.375 34.0967C220.488 34.5752 221.445 35.2686 222.246 36.1768C223.057 37.085 223.682 38.1836 224.121 39.4727C224.57 40.752 224.795 42.207 224.795 43.8379ZM220.356 44.8486V43.8086C220.356 42.6758 220.254 41.6797 220.049 40.8203C219.844 39.9609 219.541 39.2383 219.141 38.6523C218.74 38.0664 218.252 37.627 217.676 37.334C217.1 37.0312 216.44 36.8799 215.698 36.8799C214.956 36.8799 214.297 37.0312 213.721 37.334C213.154 37.627 212.671 38.0664 212.271 38.6523C211.88 39.2383 211.582 39.9609 211.377 40.8203C211.172 41.6797 211.069 42.6758 211.069 43.8086V44.8486C211.069 45.9717 211.172 46.9678 211.377 47.8369C211.582 48.6963 211.885 49.4238 212.285 50.0195C212.686 50.6055 213.174 51.0498 213.75 51.3525C214.326 51.6553 214.985 51.8066 215.728 51.8066C216.47 51.8066 217.129 51.6553 217.705 51.3525C218.281 51.0498 218.765 50.6055 219.155 50.0195C219.546 49.4238 219.844 48.6963 220.049 47.8369C220.254 46.9678 220.356 45.9717 220.356 44.8486Z" fill="url(#paint0_linear_122_239)"/>
<defs>
<linearGradient id="paint0_linear_122_239" x1="135" y1="26" x2="135" y2="64" gradientUnits="userSpaceOnUse">
<stop stop-color="white"/>
<stop offset="1" stop-color="#D9D9D9" stop-opacity="0.8"/>
</linearGradient>
</defs>
</svg>

 